<?xml version="1.0" encoding="UTF-8"?><svg xmlns="http://www.w3.org/2000/svg" xmlns:xlink="http://www.w3.org/1999/xlink" viewBox="0 0 8187.17 9013.21"><defs><style>.x{fill:url(#t);}.y{fill:url(#e);}.a`{fill:url(#q);}.aa{fill:url(#h);}.ab{fill:url(#k);}.ac{fill:url(#n);}.ad{mask:url(#m);}.ae{mask:url(#g);}.af{mask:url(#j);}.ag{mask:url(#d);}.ah{mask:url(#s);}.ai{mask:url(#p);}.aj{fill:none;}.ak{fill:#fff;}.ak,.al,.am,.an,.ao,.ap,.aq{mix-blend-mode:overlay;}.ar{fill:url(#v);}.ar,.as,.at{mix-blend-mode:color-dodge;}.as{fill:url(#c);}.at{fill:url(#w);}.al{fill:url(#u);}.am{fill:url(#o);}.an{fill:url(#f);}.ao{fill:url(#l);}.ap{fill:url(#i);}.aq{fill:url(#r);}.au{opacity:.3;}.av{opacity:.6;}.aw{opacity:.8;}.ax{opacity:.7;}.ay{clip-path:url(#b);}.b`{isolation:isolate;}</style><clipPath id="b"><rect class="aj" x="2187.17" y="2800.45" width="6000" height="3600"/></clipPath><linearGradient id="c" x1="2187.17" y1="4600.45" x2="8187.17" y2="4600.45" gradientTransform="matrix(1, 0, 0, 1, 0, 0)" gradientUnits="userSpaceOnUse"><stop offset="0" stop-color="#13007c"/><stop offset="1" stop-color="#e0013f"/></linearGradient><linearGradient id="e" x1="10172.62" y1="-18292.04" x2="15316.32" y2="-18292.04" gradientTransform="translate(-12006.89 21353.22)" gradientUnits="userSpaceOnUse"><stop offset="0" stop-color="#fff"/><stop offset=".08" stop-color="#f6f6f6"/><stop offset=".22" stop-color="#ddd"/><stop offset=".4" stop-color="#b5b5b5"/><stop offset=".6" stop-color="#7e7e7e"/><stop offset=".83" stop-color="#393939"/><stop offset="1" stop-color="#000"/></linearGradient><mask id="d" x="-205.51" y="263.07" width="5596.58" height="5596.58" maskUnits="userSpaceOnUse"><rect class="y" x="614.09" y="1082.67" width="3957.38" height="3957.38" transform="translate(2261.45 7059.44) rotate(-135)"/></mask><linearGradient id="f" x1="-3131.64" y1="-5368.82" x2="1968.37" y2="-5368.82" gradientTransform="translate(6757.61 6412.02) rotate(-45)" gradientUnits="userSpaceOnUse"><stop offset="0" stop-color="#fff"/><stop offset="1" stop-color="#000"/></linearGradient><linearGradient id="h" x1="4002.12" y1="-10954.4" x2="9768.65" y2="-10954.4" gradientTransform="translate(-4354.13 14086.97)" xlink:href="#e"/><mask id="g" x="1474.03" y="-4.45" width="6274.25" height="6274.25" maskUnits="userSpaceOnUse"><rect class="aa" x="2392.87" y="914.39" width="4436.57" height="4436.57" transform="translate(5656.6 8608.39) rotate(-135)"/></mask><linearGradient id="i" x1="-2231.91" y1="3798.54" x2="3485.64" y2="3798.54" gradientTransform="translate(1433.96 851.41) rotate(-45)" xlink:href="#f"/><linearGradient id="k" x1="9447.31" y1="-15644.89" x2="13797.18" y2="-15644.89" gradientTransform="translate(-7730.55 17830.28)" xlink:href="#e"/><mask id="j" x="3094.14" y="-180.89" width="4732.87" height="4732.87" maskUnits="userSpaceOnUse"><rect class="ab" x="3787.25" y="512.22" width="3346.64" height="3346.64" transform="translate(7776.37 7592.17) rotate(-135)"/></mask><linearGradient id="l" x1="-1867.59" y1="-2494.43" x2="2445.33" y2="-2494.43" gradientTransform="translate(6983.96 4124.55) rotate(-45)" xlink:href="#f"/><linearGradient id="n" x1="11359.19" y1="-10515.05" x2="14776.48" y2="-10515.05" gradientTransform="translate(-12153.69 17805.61)" xlink:href="#e"/><mask id="m" x="287.54" y="5431.57" width="3718.18" height="3718.18" maskUnits="userSpaceOnUse"><rect class="ac" x="832.06" y="5976.08" width="2629.15" height="2629.15" transform="translate(8819.8 10928.03) rotate(135)"/></mask><linearGradient id="o" x1="3000.13" y1="356.31" x2="6388.4" y2="356.31" gradientTransform="translate(-1447.51 10386.47) rotate(-45)" xlink:href="#f"/><linearGradient id="q" x1="5864.56" y1="-3639.51" x2="9695.65" y2="-3639.51" gradientTransform="translate(-6967.88 9589.19)" xlink:href="#e"/><mask id="p" x="109.81" y="3865.52" width="4168.4" height="4168.4" maskUnits="userSpaceOnUse"><rect class="a`" x="720.26" y="4475.96" width="2947.5" height="2947.5" transform="translate(7952.49 8605.4) rotate(135)"/></mask><linearGradient id="r" x1="4026.03" y1="8847.98" x2="7824.58" y2="8847.98" gradientTransform="translate(-8277.9 3914.93) rotate(-45)" xlink:href="#f"/><linearGradient id="t" x1="10877.32" y1="-8756.37" x2="13767.22" y2="-8756.37" gradientTransform="translate(-11799.76 14141.68)" xlink:href="#e"/><mask id="s" x="-7.41" y="3813.21" width="3144.35" height="3144.35" maskUnits="userSpaceOnUse"><rect class="x" x="453.07" y="4273.69" width="2223.39" height="2223.39" transform="translate(6479.28 8086.98) rotate(135)"/></mask><linearGradient id="u" x1="3839.92" y1="2265.96" x2="6705.28" y2="2265.96" gradientTransform="translate(-3785.12 7535.44) rotate(-45)" xlink:href="#f"/><radialGradient id="v" cx="8367.24" cy="-30877.84" fx="8367.24" fy="-30877.84" r="1073.46" gradientTransform="translate(6578.65 7636.24) rotate(-135) scale(.57 .03)" gradientUnits="userSpaceOnUse"><stop offset="0" stop-color="#c15618"/><stop offset=".74" stop-color="#321606"/><stop offset="1" stop-color="#000"/></radialGradient><radialGradient id="w" cx="5274.93" cy="-54709.13" fx="5274.93" fy="-54709.13" r="1073.46" xlink:href="#v"/></defs><g class="b`"><g id="a"><g class="ay"><rect class="as" x="2187.17" y="2800.45" width="6000" height="3600"/><g class="au"><g class="ax"><g class="ag"><g><rect class="an" x="746.88" y="1223.84" width="3606.25" height="3606.25" transform="translate(-1393.51 2689.7) rotate(-45)"/><path class="ak" d="M2550,5576.97l2550-2550L2550,476.97,0,3026.97l2550,2550Zm0-5066.45l2516.45,2516.45-2516.45,2516.45L33.55,3026.97,2550,510.52Z"/></g></g><g class="ae"><g><rect class="ap" x="2541.74" y="1072.66" width="4042.92" height="4042.92" transform="translate(-851.34 4132.92) rotate(-45)"/><path class="ak" d="M4563.2,5952.89l2858.77-2858.77L4563.2,235.35,1704.43,3094.12l2858.77,2858.77Zm0-5679.93l2821.16,2821.16-2821.16,2821.16L1742.04,3094.12,4563.2,272.96Z"/></g></g><g class="af"><g><rect class="ao" x="3899.55" y="631.61" width="3049.7" height="3049.7" transform="translate(63.92 4467.24) rotate(-45)"/><path class="ak" d="M5424.4,4312.93l2156.46-2156.46L5424.4,0,3267.93,2156.46l2156.46,2156.46Zm0-4284.55l2128.09,2128.09-2128.09,2128.09L3296.31,2156.46,5424.4,28.37Z"/></g></g></g></g><g class="av"><g><g class="ax"><g class="ad"><g><rect class="am" x="925.85" y="6121.14" width="2395.87" height="2395.87" transform="translate(-1549.85 13996.19) rotate(-135)"/><path class="ak" d="M3817.92,7319.08l-1694.13-1694.13L429.65,7319.08l1694.13,1694.13,1694.13-1694.13Zm-3365.98,0l1671.84-1671.84,1671.84,1671.84-1671.84,1671.84L451.94,7319.08Z"/></g></g><g class="ai"><g><rect class="aq" x="825.41" y="4638.59" width="2685.97" height="2685.97" transform="translate(-527.93 11744.48) rotate(-135)"/><path class="ak" d="M4067.67,5981.58l-1899.27-1899.27L269.12,5981.58l1899.27,1899.27,1899.27-1899.27Zm-3773.55,0l1874.28-1874.28,1874.28,1874.28-1874.28,1874.28L294.11,5981.58Z"/></g></g><g class="ah"><g><rect class="al" x="532.39" y="4396.37" width="2026.12" height="2026.12" transform="translate(-1186.8 10327.27) rotate(-135)"/><path class="ak" d="M2978.13,5409.43l-1432.68-1432.68L112.77,5409.43l1432.68,1432.68,1432.68-1432.68Zm-2846.51,0l1413.83-1413.83,1413.83,1413.83-1413.83,1413.83L131.62,5409.43Z"/></g></g></g><g><g class="aw"><path class="ar" d="M2103.13,4550.21c13.35-13.35,216.54,168.21,453.86,405.53,237.31,237.31,418.88,440.51,405.53,453.86-13.35,13.35-216.55-168.21-453.86-405.53-237.32-237.32-418.88-440.52-405.53-453.86Z"/></g><g class="av"><path class="at" d="M2805.4,6324.89c13.34-13.35,216.54,168.21,453.86,405.53,237.31,237.31,418.88,440.51,405.53,453.86-13.35,13.35-216.55-168.21-453.86-405.53-237.32-237.32-418.88-440.52-405.53-453.86Z"/></g></g></g></g></g></g></g></svg>